<svg xmlns="http://www.w3.org/2000/svg" xmlns:xlink="http://www.w3.org/1999/xlink" width="300px" height="300px" id="bey_svg" style="display:none">
    <g id="base">
        <path d="M299.976,150c0-92.649-11-35.51-20.949-42.608c-4.499-3.21-6.918-5.664-11.429-19.951C264.917,78.951,249.452,0.822,150,0
            v0.024c-92.649,0-35.509,11-42.608,20.949c-3.21,4.499-5.664,6.918-19.951,11.429C78.951,35.083,0.822,50.147,0,150h0.024
            c0,92.649,11,35.51,20.949,42.608c4.499,3.21,6.918,5.664,11.429,19.951C35.083,221.049,50.548,299.178,150,300v-0.024
            c92.649,0,35.51-11,42.608-20.949c3.21-4.499,5.664-6.918,19.951-11.429c8.491-2.681,86.62-18.146,87.441-117.598H299.976z"
            fill="black" />
    </g>
    <g id="design">
        <path d="M266.395,106.089c-7.643-8.271-25.354-27.682-50.829-38.297c-14.437-6.015-27.25-8.848-38.498-10.827
            c-24.089-4.239-46.518,2.607-46.518,2.607s28.784-0.673,56.944,10.226c14.413,5.579,28.673,12.833,41.104,25.665
            c10.797,11.145,23.408,28.686,24.262,55.14c0.802,24.863-3.557,43.112-11.629,63.16c-12.031,29.876-26.467,41.104-26.467,41.104
            s19.673-4.916,35.29-18.246c14.031-11.977,22.319-23.363,27.169-34.287c5.274-11.88,9.054-28.723,9.023-46.017
            C286.214,138.646,275.251,115.671,266.395,106.089z M219.426,82.529c-2.464,0-4.461-1.997-4.461-4.461
            c0-2.464,1.997-4.461,4.461-4.461c2.464,0,4.461,1.997,4.461,4.461C223.887,80.531,221.89,82.529,219.426,82.529z M230.254,89.747
            c-2.464,0-4.461-1.997-4.461-4.461c0-2.464,1.997-4.461,4.461-4.461c2.464,0,4.461,1.997,4.461,4.461
            C234.715,87.75,232.718,89.747,230.254,89.747z M235.417,93.707c0-2.464,1.997-4.461,4.461-4.461c2.464,0,4.461,1.997,4.461,4.461
            c0,2.464-1.997,4.461-4.461,4.461C237.414,98.169,235.417,96.171,235.417,93.707z M251.676,120.91
            c-1.675-4.056-3.865-7.727-5.625-10.677c-1.672-2.804-3.402-5.705-3.402-6.957l0.005-0.08c0.718-2.27,4.233-4.839,6.481-4.73
            c4.317,0.211,11.976,8.315,16,14.028c6.824,9.686,11.456,22.507,12.184,28.258c0.505,3.985-3.604,5.861-6.864,6.542
            c-3.963,0.828-8.129,0.455-9.906-0.886c-2.17-1.638-3.526-7.746-4.718-12.412C254.929,130.462,253.806,126.065,251.676,120.91z
             M276.41,189.052c-2.492,8.904-10.2,23.084-15.775,26.556c-6.37,3.968-11.583,2.6-12.023-1.237c0-1.873,1.203-5.593,2.599-9.903
            c1.964-6.062,4.407-13.607,5.831-22.404c1.095-6.759,1.241-12.708,1.36-17.489c0.095-3.812,0.211-8.558,1.069-9.361
            c2.512-2.357,8.327-3.875,13.239-3.455c2.99,0.256,5.234,1.188,6.32,2.625c0.289,0.383,1.233,2.07,1.233,7.692
            C280.262,170.694,278.025,183.28,276.41,189.052z" fill="black" />
        <path d="M243.036,177.069c4.239-24.089-2.607-46.518-2.607-46.518s0.673,28.784-10.226,56.944
            c-5.579,14.413-12.833,28.673-25.665,41.104c-11.145,10.797-28.686,23.408-55.14,24.262c-24.863,0.802-43.112-3.557-63.16-11.629
            c-29.876-12.031-41.104-26.467-41.104-26.467s4.916,19.673,18.246,35.29c11.977,14.031,23.363,22.319,34.287,27.169
            c11.88,5.274,28.723,9.054,46.017,9.023c17.67-0.031,40.645-10.995,50.227-19.85c8.271-7.643,27.682-25.354,38.297-50.829
            C238.224,201.13,241.057,188.316,243.036,177.069z M148.241,272.709c-0.256,2.99-1.188,5.234-2.625,6.32
            c-0.383,0.289-2.07,1.233-7.692,1.233c-8.619,0-21.205-2.238-26.977-3.852c-8.904-2.492-23.084-10.2-26.556-15.775
            c-3.968-6.37-2.6-11.583,1.237-12.023c1.873,0,5.593,1.203,9.903,2.599c6.062,1.964,13.607,4.407,22.404,5.831
            c6.759,1.095,12.708,1.241,17.489,1.36c3.812,0.095,8.558,0.211,9.361,1.069C147.143,261.982,148.661,267.798,148.241,272.709z
             M187.506,265.135c-9.686,6.824-22.507,11.456-28.258,12.184c-3.985,0.505-5.861-3.604-6.542-6.864
            c-0.828-3.963-0.455-8.129,0.886-9.906c1.638-2.17,7.746-3.526,12.412-4.718c3.533-0.902,7.929-2.025,13.084-4.155
            c4.056-1.675,7.727-3.865,10.677-5.625c2.804-1.672,5.705-3.402,6.957-3.402l0.08,0.005c2.27,0.718,4.839,4.233,4.73,6.481
            C201.323,253.452,193.218,261.111,187.506,265.135z M206.293,244.339c-2.464,0-4.461-1.997-4.461-4.461
            c0-2.464,1.997-4.461,4.461-4.461c2.464,0,4.461,1.997,4.461,4.461C210.754,242.342,208.757,244.339,206.293,244.339z
             M214.714,234.715c-2.464,0-4.461-1.997-4.461-4.461c0-2.464,1.997-4.461,4.461-4.461c2.464,0,4.461,1.997,4.461,4.461
            C219.176,232.718,217.178,234.715,214.714,234.715z M221.933,223.887c-2.464,0-4.461-1.997-4.461-4.461
            c0-2.464,1.997-4.461,4.461-4.461c2.464,0,4.461,1.997,4.461,4.461C226.394,221.89,224.396,223.887,221.933,223.887z" fill="black" />
        <path d="M122.931,243.036c24.089,4.239,46.518-2.607,46.518-2.607s-28.784,0.673-56.944-10.226
            c-14.413-5.579-28.673-12.833-41.104-25.665c-10.797-11.145-23.408-28.686-24.262-55.14c-0.802-24.863,3.557-43.112,11.629-63.16
            c12.031-29.876,26.467-41.104,26.467-41.104S65.563,50.05,49.946,63.38C35.915,75.357,27.627,86.743,22.777,97.667
            c-5.274,11.88-9.054,28.723-9.023,46.017c0.031,17.67,10.995,40.645,19.85,50.227c7.643,8.271,25.354,27.682,50.829,38.297
            C98.87,238.224,111.684,241.057,122.931,243.036z M20.971,145.617c-0.289-0.383-1.233-2.07-1.233-7.692
            c0-8.619,2.238-21.205,3.852-26.977c2.492-8.904,10.2-23.084,15.775-26.556c6.37-3.968,11.583-2.6,12.023,1.237
            c0,1.873-1.203,5.593-2.599,9.903c-1.964,6.062-4.407,13.607-5.831,22.404c-1.095,6.759-1.241,12.708-1.36,17.489
            c-0.095,3.812-0.211,8.558-1.069,9.361c-2.512,2.357-8.327,3.875-13.239,3.455C24.301,147.985,22.056,147.053,20.971,145.617z
             M50.865,201.534c-4.317-0.211-11.976-8.315-16-14.028c-6.824-9.686-11.456-22.507-12.184-28.258
            c-0.505-3.985,3.604-5.861,6.864-6.542c3.963-0.828,8.129-0.455,9.906,0.886c2.17,1.638,3.526,7.746,4.718,12.412
            c0.902,3.533,2.025,7.929,4.155,13.084c1.675,4.056,3.865,7.727,5.625,10.677c1.672,2.804,3.402,5.705,3.402,6.957l-0.005,0.08
            C56.627,199.074,53.113,201.643,50.865,201.534z M60.122,210.754c-2.464,0-4.461-1.997-4.461-4.461
            c0-2.464,1.997-4.461,4.461-4.461c2.464,0,4.461,1.997,4.461,4.461C64.583,208.757,62.586,210.754,60.122,210.754z M69.746,219.176
            c-2.464,0-4.461-1.997-4.461-4.461c0-2.464,1.997-4.461,4.461-4.461c2.464,0,4.461,1.997,4.461,4.461
            C74.208,217.178,72.21,219.176,69.746,219.176z M80.574,226.394c-2.464,0-4.461-1.997-4.461-4.461c0-2.464,1.997-4.461,4.461-4.461
            c2.464,0,4.461,1.997,4.461,4.461C85.035,224.396,83.038,226.394,80.574,226.394z" fill="black" />
        <path d="M56.964,122.931c-4.239,24.089,2.607,46.518,2.607,46.518s-0.673-28.784,10.226-56.944
            c5.579-14.413,12.833-28.673,25.665-41.104c11.145-10.797,28.686-23.408,55.14-24.262c24.863-0.802,43.112,3.557,63.16,11.629
            c29.876,12.031,41.104,26.467,41.104,26.467s-4.916-19.673-18.246-35.29c-11.977-14.031-23.363-22.319-34.287-27.169
            c-11.88-5.274-28.723-9.054-46.017-9.023c-17.67,0.031-40.645,10.995-50.227,19.85c-8.271,7.643-27.682,25.354-38.297,50.829
            C61.776,98.87,58.943,111.684,56.964,122.931z M151.759,27.291c0.256-2.99,1.188-5.234,2.625-6.32
            c0.383-0.289,2.07-1.233,7.692-1.233c8.619,0,21.205,2.238,26.977,3.852c8.904,2.492,23.084,10.2,26.556,15.775
            c3.968,6.37,2.6,11.583-1.237,12.023c-1.873,0-5.593-1.203-9.903-2.599c-6.062-1.964-13.607-4.407-22.404-5.831
            c-6.759-1.095-12.708-1.241-17.489-1.36c-3.812-0.095-8.558-0.211-9.361-1.069C152.857,38.018,151.339,32.202,151.759,27.291z
             M112.494,34.865c9.686-6.824,22.507-11.456,28.258-12.184c3.985-0.505,5.861,3.604,6.542,6.864
            c0.828,3.963,0.455,8.129-0.886,9.906c-1.638,2.17-7.746,3.526-12.412,4.718c-3.533,0.902-7.929,2.025-13.084,4.155
            c-4.056,1.675-7.727,3.865-10.677,5.625c-2.804,1.672-5.705,3.402-6.957,3.402l-0.08-0.005c-2.27-0.718-4.839-4.233-4.73-6.481
            C98.677,46.548,106.782,38.889,112.494,34.865z M93.707,55.661c2.464,0,4.461,1.997,4.461,4.461c0,2.464-1.997,4.461-4.461,4.461
            c-2.464,0-4.461-1.997-4.461-4.461C89.246,57.658,91.243,55.661,93.707,55.661z M85.286,65.285c2.464,0,4.461,1.997,4.461,4.461
            c0,2.464-1.997,4.461-4.461,4.461c-2.464,0-4.461-1.997-4.461-4.461C80.824,67.282,82.822,65.285,85.286,65.285z M78.067,76.113
            c2.464,0,4.461,1.997,4.461,4.461c0,2.464-1.997,4.461-4.461,4.461c-2.464,0-4.461-1.997-4.461-4.461
            C73.606,78.11,75.604,76.113,78.067,76.113z" fill="black" />
        <path d="M217.822,145.789c14.587-13.685,20.372-16.751,15.94-27.821c-5.107-12.757-12.782-7.97-30.979-9.324
            c-11.889-0.884-29.029-9.836-29.029-9.836v0c-0.001,0-20.139-8.288-27.966-16.631c-13.685-14.587-16.751-20.372-27.821-15.94
            c-12.757,5.107-7.97,12.782-9.324,30.979c-0.884,11.889-9.836,29.029-9.836,29.029h0c0,0.001-8.288,20.139-16.631,27.966
            c-14.587,13.685-20.372,16.751-15.94,27.821c5.107,12.757,12.782,7.97,30.979,9.324c11.889,0.884,29.029,9.836,29.029,9.836v0
            c0.001,0,20.139,8.288,27.966,16.631c13.685,14.587,16.751,20.372,27.821,15.94c12.757-5.107,7.97-12.782,9.324-30.979
            c0.884-11.889,9.836-29.029,9.836-29.029h0C201.191,173.754,209.479,153.616,217.822,145.789z M121.127,74.007
            c7.92-2.907,11.577,4.651,19.85,14.236c8.221,9.524,21.37,7.159,14.453,25.405c-1.536,4.051-11.546,0.661-19.788,4.361
            c-7.607,3.415-10.782,11.049-14.515,9.469c-14.537-6.153-7.274-13.756-6.015-26.503C116.255,89.396,112.017,77.351,121.127,74.007z
             M100.976,184.889c-11.58-1.143-23.624,3.095-26.968-6.015c-2.907-7.92,4.651-11.577,14.236-19.85
            c9.524-8.221,7.159-21.37,25.405-14.453c4.051,1.536,0.661,11.546,4.361,19.788c3.415,7.607,11.049,10.782,9.469,14.515
            C121.326,193.41,113.723,186.147,100.976,184.889z M178.873,225.993c-7.92,2.907-11.577-4.651-19.85-14.236
            c-8.221-9.524-21.37-7.159-14.453-25.405c1.536-4.051,11.546-0.661,19.788-4.361c7.607-3.415,10.782-11.049,14.515-9.469
            c14.537,6.153,7.274,13.756,6.015,26.503C183.745,210.604,187.983,222.649,178.873,225.993z M150,178.873
            c-4.343,0-8.459-0.965-12.154-2.683c-9.872-4.589-16.72-14.587-16.72-26.191c0-4.343,0.965-8.459,2.683-12.154
            c4.589-9.872,14.587-16.72,26.191-16.72c4.343,0,8.459,0.965,12.154,2.683c9.872,4.589,16.72,14.587,16.72,26.191
            c0,4.343-0.965,8.459-2.683,12.154C171.602,172.025,161.603,178.873,150,178.873z M186.351,155.43
            c-4.051-1.536-0.661-11.546-4.361-19.788c-3.415-7.607-11.049-10.782-9.469-14.515c6.153-14.537,13.756-7.274,26.503-6.015
            c11.58,1.143,23.624-3.095,26.968,6.015c2.907,7.92-4.651,11.577-14.236,19.85C202.233,149.198,204.598,162.348,186.351,155.43z"
            fill="black" />
    </g>
</svg>
